<svg width="354" height="61" viewBox="0 0 354 61" fill="none" xmlns="http://www.w3.org/2000/svg"><path d="M39.2875 0.06L0.3375 18.89C-0.1125 19.11 -0.1125 19.75 0.3375 19.97L39.2875 38.8C39.4575 38.88 39.6475 38.88 39.8075 38.8L78.7575 19.97C79.2075 19.75 79.2075 19.11 78.7575 18.89L39.8175 0.06C39.6475 -0.02 39.4575 -0.02 39.2975 0.06H39.2875Z" fill="#0E4380"/><path d="M65.7475 35.65L39.9575 48.07C39.6975 48.19 39.3975 48.19 39.1475 48.07L13.3575 35.65C12.9075 35.43 12.3675 35.61 12.1275 36.04L7.3475 44.76C7.0975 45.22 7.2675 45.8 7.7275 46.04L37.8675 60.4C38.9275 60.91 40.1675 60.91 41.2375 60.4L71.3775 46.04C71.8375 45.79 72.0075 45.22 71.7575 44.76L66.9775 36.04C66.7375 35.6 66.1975 35.43 65.7475 35.65Z" fill="#EA5C0C"/><path d="M122.928 41.4702V48.2002H94.8775V11.9702H122.258V18.7002H103.208V26.5702H120.028V33.0902H103.208V41.4702H122.928Z" fill="#0E4380"/><path d="M129.608 11.9702H146.068C157.918 11.9702 166.048 19.1102 166.048 30.0902C166.048 41.0702 157.918 48.2002 146.068 48.2002H129.608V11.9702ZM145.648 41.3202C152.838 41.3202 157.548 37.0202 157.548 30.0902C157.548 23.1602 152.838 18.8602 145.648 18.8602H137.988V41.3202H145.648Z" fill="#0E4380"/><path d="M172.038 32.2602V11.9702H180.418V31.9502C180.418 38.8302 183.418 41.6802 188.488 41.6802C193.558 41.6802 196.558 38.8302 196.558 31.9502V11.9702H204.838V32.2602C204.838 42.9202 198.728 48.8202 188.428 48.8202C178.128 48.8202 172.018 42.9202 172.018 32.2602H172.038Z" fill="#0E4380"/><path d="M246.358 11.9702V48.2002H237.978V33.3502H221.518V48.2002H213.138V11.9702H221.518V26.2602H237.978V11.9702H246.358Z" fill="#EA5C0C"/><path d="M283.008 41.4702V48.2002H254.958V11.9702H282.338V18.7002H263.288V26.5702H280.107V33.0902H263.288V41.4702H283.008Z" fill="#EA5C0C"/><path d="M321.098 25.1202C321.098 33.1902 315.037 38.2102 305.367 38.2102H298.068V48.2002H289.688V11.9702H305.367C315.047 11.9702 321.098 16.9902 321.098 25.1202ZM312.607 25.1202C312.607 21.1302 310.017 18.8102 304.897 18.8102H298.068V31.3902H304.897C310.017 31.3902 312.607 29.0602 312.607 25.1302V25.1202Z" fill="#EA5C0C"/><path d="M327.038 11.9702H335.418V41.3702H353.587V48.2002H327.038V11.9702Z" fill="#EA5C0C"/></svg>
