<svg width="18" height="18" viewBox="0 0 18 18" fill="none" xmlns="http://www.w3.org/2000/svg"><path d="M17.7 16.275L13.5 12.075C14.475 10.8 15.075 9.22499 15.075 7.49999C15.075 3.375 11.7 0 7.575 0C3.45 0 0 3.375 0 7.49999C0 11.625 3.375 15 7.5 15C9.225 15 10.875 14.4 12.15 13.35L16.35 17.55C16.5 17.7 16.8 17.85 17.025 17.85C17.25 17.85 17.475 17.775 17.7 17.55C18.075 17.25 18.075 16.65 17.7 16.275ZM1.875 7.49999C1.875 4.42499 4.425 1.875 7.5 1.875C10.575 1.875 13.125 4.42499 13.125 7.49999C13.125 10.575 10.575 13.125 7.5 13.125C4.425 13.125 1.875 10.65 1.875 7.49999Z" fill="black"/></svg>
